<svg xmlns="http://www.w3.org/2000/svg" viewBox="0 0 120 120" width="100%" height="100%">
  <defs>
    <linearGradient id="showerGrad" x1="0%" y1="0%" x2="100%" y2="100%">
      <stop offset="0%" stop-color="#38bdf8"/>
      <stop offset="100%" stop-color="#0284c7"/>
    </linearGradient>
  </defs>
  <rect width="120" height="120" rx="16" fill="#0f172a"/>
  <!-- Tubulação -->
  <path d="M 20 25 L 60 25 L 60 45" fill="none" stroke="#94a3b8" stroke-width="6" stroke-linecap="round"/>
  <!-- Cúpula do chuveiro -->
  <path d="M 40 48 L 80 48 L 90 62 L 30 62 Z" fill="url(#showerGrad)" rx="2"/>
  <ellipse cx="60" cy="62" rx="30" ry="6" fill="#0284c7"/>
  <!-- Jatos d'água -->
  <line x1="45" y1="68" x2="40" y2="95" stroke="#38bdf8" stroke-width="2.5" stroke-dasharray="3,3" stroke-linecap="round"/>
  <line x1="53" y1="68" x2="50" y2="100" stroke="#38bdf8" stroke-width="2.5" stroke-dasharray="3,3" stroke-linecap="round"/>
  <line x1="60" y1="68" x2="60" y2="105" stroke="#38bdf8" stroke-width="2.5" stroke-dasharray="3,3" stroke-linecap="round"/>
  <line x1="67" y1="68" x2="70" y2="100" stroke="#38bdf8" stroke-width="2.5" stroke-dasharray="3,3" stroke-linecap="round"/>
  <line x1="75" y1="68" x2="80" y2="95" stroke="#38bdf8" stroke-width="2.5" stroke-dasharray="3,3" stroke-linecap="round"/>
  <!-- Alerta de alta potência -->
  <circle cx="95" cy="25" r="14" fill="#ef4444"/>
  <path d="M 95 16 L 90 26 L 94 26 L 93 33 L 100 23 L 96 23 Z" fill="#ffffff"/>
</svg>
