<svg xmlns="http://www.w3.org/2000/svg" viewBox="0 0 120 120" width="100%" height="100%">
  <rect width="120" height="120" rx="16" fill="#0f172a"/>
  <!-- IHS metálico externo -->
  <rect x="25" y="25" width="70" height="70" rx="8" fill="#334155" stroke="#64748b" stroke-width="2"/>
  <!-- Núcleo interno die -->
  <rect x="36" y="36" width="48" height="48" rx="4" fill="#090d16" stroke="#38bdf8" stroke-width="1.5"/>
  <!-- Trilhas de circuito de silício -->
  <line x1="42" y1="42" x2="52" y2="42" stroke="#38bdf8" stroke-width="1.5"/>
  <line x1="42" y1="48" x2="65" y2="48" stroke="#38bdf8" stroke-width="1.5"/>
  <line x1="42" y1="54" x2="50" y2="54" stroke="#38bdf8" stroke-width="1.5"/>
  <line x1="55" y1="54" x2="78" y2="54" stroke="#38bdf8" stroke-width="1.5"/>
  <line x1="68" y1="60" x2="78" y2="60" stroke="#38bdf8" stroke-width="1.5"/>
  <line x1="42" y1="66" x2="62" y2="66" stroke="#38bdf8" stroke-width="1.5"/>
  <line x1="42" y1="72" x2="78" y2="72" stroke="#38bdf8" stroke-width="1.5"/>
  <circle cx="60" cy="60" r="5" fill="#38bdf8"/>
  <!-- Pinos de contato dourados nas bordas -->
  <rect x="28" y="20" width="4" height="4" fill="#eab308"/>
  <rect x="38" y="20" width="4" height="4" fill="#eab308"/>
  <rect x="48" y="20" width="4" height="4" fill="#eab308"/>
  <rect x="58" y="20" width="4" height="4" fill="#eab308"/>
  <rect x="68" y="20" width="4" height="4" fill="#eab308"/>
  <rect x="78" y="20" width="4" height="4" fill="#eab308"/>
  <rect x="88" y="20" width="4" height="4" fill="#eab308"/>
</svg>
